<svg viewBox="0 0 180 180" xmlns="http://www.w3.org/2000/svg">
  <defs>
    <linearGradient id="p1" x1="0" y1="0" x2="1" y2="1">
      <stop offset="0%" stop-color="#e46aeb" stop-opacity="0.9"/>
      <stop offset="100%" stop-color="#b44fc0" stop-opacity="0.6"/>
    </linearGradient>
    <linearGradient id="p2" x1="0" y1="0" x2="1" y2="1">
      <stop offset="0%" stop-color="#00df9a" stop-opacity="0.85"/>
      <stop offset="100%" stop-color="#009e6e" stop-opacity="0.6"/>
    </linearGradient>
    <linearGradient id="p3" x1="1" y1="0" x2="0" y2="1">
      <stop offset="0%" stop-color="#e46aeb" stop-opacity="0.5"/>
      <stop offset="100%" stop-color="#00df9a" stop-opacity="0.5"/>
    </linearGradient>
  </defs>
  <g transform="translate(90,90)">
    <path d="M0,0 C-18,-38 -10,-70 0,-82 C10,-70 18,-38 0,0Z" fill="url(#p1)" opacity="0.85"/>
    <path d="M0,0 C18,38 10,70 0,82 C-10,70 -18,38 0,0Z" fill="url(#p1)" opacity="0.6"/>
    <path d="M0,0 C-38,-18 -70,-10 -82,0 C-70,10 -38,18 0,0Z" fill="url(#p2)" opacity="0.85"/>
    <path d="M0,0 C38,18 70,10 82,0 C70,-10 38,-18 0,0Z" fill="url(#p2)" opacity="0.6"/>
    <path d="M0,0 C-14,-30 -30,-44 -42,-46 C-28,-34 -14,-14 0,0Z" fill="url(#p3)" opacity="0.75"/>
    <path d="M0,0 C14,30 30,44 42,46 C28,34 14,14 0,0Z" fill="url(#p3)" opacity="0.75"/>
    <path d="M0,0 C30,-14 44,-30 46,-42 C34,-28 14,-14 0,0Z" fill="url(#p3)" opacity="0.75"/>
    <path d="M0,0 C-30,14 -44,30 -46,42 C-34,28 -14,14 0,0Z" fill="url(#p3)" opacity="0.75"/>
    <circle cx="0" cy="0" r="12" fill="#00df9a" opacity="0.9"/>
    <circle cx="0" cy="0" r="6" fill="#e46aeb" opacity="1"/>
  </g>
</svg>
